<?xml version="1.0" encoding="utf-8"?>
<!-- Generator: Adobe Illustrator 15.0.0, SVG Export Plug-In . SVG Version: 6.00 Build 0)  -->
<!DOCTYPE svg PUBLIC "-//W3C//DTD SVG 1.0//EN" "http://www.w3.org/TR/2001/REC-SVG-20010904/DTD/svg10.dtd">
<svg version="1.0" id="Layer_1" xmlns="http://www.w3.org/2000/svg" xmlns:xlink="http://www.w3.org/1999/xlink" x="0px" y="0px"
	 width="482.5px" height="106px" viewBox="0 0 482.5 106" enable-background="new 0 0 482.5 106" xml:space="preserve">
<path fill="#F57E24" d="M160.059,51.718c0.044-22.557,18.368-40.808,40.929-40.769c22.556,0.043,40.812,18.362,40.771,40.927
	c-0.05,22.566-18.372,40.813-40.924,40.77C178.27,92.604,160.019,74.286,160.059,51.718"/>
<path fill="#F57E24" d="M247.107,31.922l10.326,0.02l-0.007,4.271c2.357-1.972,4.494-3.34,6.406-4.109
	c1.916-0.77,3.868-1.151,5.866-1.149c4.103,0.007,7.585,1.442,10.437,4.304c2.404,2.428,3.598,6.022,3.586,10.771l-0.054,27.257
	l-10.319-0.021l0.036-18.041c0.007-4.914-0.211-8.181-0.649-9.796c-0.438-1.614-1.202-2.844-2.3-3.69
	c-1.096-0.85-2.445-1.273-4.057-1.275c-2.097-0.006-3.892,0.693-5.394,2.091c-1.503,1.394-2.543,3.325-3.13,5.797
	c-0.301,1.286-0.457,4.075-0.468,8.356l-0.032,16.527l-10.326-0.016L247.107,31.922z"/>
<path fill="#F57E24" d="M313.515,40.754c-3.259-0.005-5.939,1.076-8.064,3.234c-2.123,2.164-3.188,4.888-3.191,8.17
	c-0.004,3.409,1.068,6.204,3.237,8.39c2.161,2.185,4.882,3.276,8.161,3.281c3.202,0.009,5.847-1.052,7.931-3.177
	c2.086-2.125,3.13-4.916,3.143-8.376c0.007-3.408-1.037-6.177-3.131-8.31C319.511,41.833,316.815,40.764,313.515,40.754
	 M324.259,32.072l10.322,0.019l-0.07,35.329c-0.008,6.969-1.425,12.1-4.234,15.381c-3.78,4.439-9.462,6.653-17.051,6.635
	c-4.053-0.004-7.446-0.522-10.201-1.537c-2.762-1.021-5.081-2.517-6.978-4.484c-1.897-1.969-3.294-4.357-4.198-7.178l11.427,0.025
	c1.005,1.201,2.302,2.113,3.898,2.729c1.588,0.617,3.474,0.929,5.655,0.936c2.777,0.006,5.015-0.426,6.713-1.287
	c1.692-0.865,2.889-1.986,3.59-3.365c0.7-1.369,1.047-3.74,1.056-7.106c-1.821,1.849-3.733,3.172-5.737,3.978
	c-1.998,0.803-4.263,1.205-6.794,1.201c-5.538-0.011-10.213-2.017-14.025-6.017c-3.81-4.002-5.711-9.06-5.7-15.177
	c0.018-6.546,2.051-11.797,6.106-15.756c3.669-3.583,8.049-5.367,13.134-5.361c2.375,0.007,4.619,0.445,6.731,1.323
	c2.112,0.883,4.229,2.318,6.349,4.315L324.259,32.072z"/>
<rect x="343.931" y="16.121" transform="matrix(1 0.0021 -0.0021 1 0.0939 -0.7262)" fill="#F57E24" width="10.326" height="57.282"/>
<path fill="#F57E24" d="M362.594,32.146l10.322,0.015l-0.082,41.297l-10.322-0.021L362.594,32.146z M367.814,15.15
	c1.797,0.005,3.333,0.667,4.62,1.987c1.278,1.323,1.921,2.921,1.921,4.793c-0.013,1.856-0.648,3.43-1.921,4.734
	c-1.274,1.302-2.798,1.954-4.564,1.947c-1.823-0.002-3.375-0.668-4.658-2.002c-1.284-1.334-1.922-2.954-1.918-4.856
	c0.006-1.822,0.647-3.379,1.918-4.672C364.483,15.791,366.023,15.148,367.814,15.15"/>
<path fill="#F57E24" d="M407.53,38.105l-6.378,6.461c-2.582-2.569-4.93-3.855-7.039-3.862c-1.161-0.004-2.063,0.246-2.718,0.734
	c-0.648,0.484-0.98,1.096-0.98,1.823c0,0.553,0.207,1.063,0.621,1.532c0.412,0.464,1.438,1.1,3.077,1.908l3.775,1.889
	c3.974,1.97,6.707,3.972,8.19,6.01c1.482,2.037,2.217,4.422,2.213,7.164c-0.008,3.641-1.355,6.678-4.053,9.112
	c-2.698,2.433-6.3,3.642-10.822,3.631c-6.015-0.006-10.811-2.384-14.386-7.116l6.388-6.967c1.208,1.424,2.632,2.58,4.259,3.454
	c1.632,0.882,3.078,1.315,4.343,1.319c1.359,0.007,2.464-0.316,3.297-0.975c0.841-0.65,1.257-1.408,1.265-2.267
	c0-1.586-1.507-3.14-4.51-4.655l-3.481-1.746c-6.67-3.363-10.002-7.563-9.988-12.601c0.008-3.247,1.262-6.028,3.773-8.328
	c2.515-2.293,5.723-3.443,9.63-3.436c2.671,0.006,5.189,0.603,7.541,1.794C403.901,34.179,405.899,35.889,407.53,38.105"/>
<path fill="#F57E24" d="M416.571,16.256l10.318,0.021l-0.035,20.228c2.025-1.744,4.066-3.051,6.121-3.922
	c2.049-0.878,4.125-1.306,6.223-1.306c4.105,0.011,7.557,1.434,10.361,4.268c2.4,2.457,3.595,6.061,3.586,10.81L453.1,73.613
	l-10.228-0.022l0.037-18.062c0.01-4.771-0.21-8.003-0.663-9.692c-0.455-1.692-1.229-2.958-2.332-3.792
	c-1.098-0.838-2.457-1.254-4.075-1.26c-2.101-0.002-3.908,0.689-5.415,2.075c-1.504,1.385-2.553,3.277-3.145,5.672
	c-0.3,1.238-0.456,4.063-0.468,8.484l-0.027,16.545l-10.327-0.019L416.571,16.256z"/>
<polygon fill="#1E2257" points="67.515,41.413 67.53,30.924 37.347,30.865 37.261,77.164 67.444,77.225 67.46,66.707 49.318,66.673 
	49.338,58.814 64.938,58.837 64.958,49.26 49.363,49.23 49.386,41.381 "/>
<path fill="#1E2257" d="M119.04,77.016c1.987,0.323,7.897,1.605,15.508,0.979c6.704-0.556,15.117-4.494,15.277-15.024
	c0.075-4.533-1.313-9.812-7.896-12.418l-9.88-3.547c-1.065-0.438-1.937-1.405-1.971-2.269c-0.056-1.726,1.341-3.338,4.466-3.719
	c2.781-0.335,7.154,0.112,12.563,1.379l-0.051-10.785c-1.865-0.498-6.345-1.666-12.371-1.867
	c-7.981-0.263-15.978,4.854-16.492,14.852c-0.254,4.951,1.998,10.513,7.85,12.638l9.11,3.322c2.256,0.973,2.334,1.938,2.39,2.703
	c0.098,1.396-1.263,2.459-3.051,3.155c-2.369,0.917-9.359,0.974-15.383-0.867L119.04,77.016z"/>
<path fill="#1E2257" d="M88.626,41.338c5.342-0.914,11.174,0.542,11.167,4.324c-0.008,3.773-5.847,5.208-11.181,4.276L88.626,41.338
	z M88.592,58.416c5.343-0.91,11.178,0.553,11.167,4.33c-0.007,3.775-5.843,5.206-11.179,4.273L88.592,58.416z M76.588,30.938
	L76.499,77.26l18.034,0.033c14.89,0.025,17.357-9.059,17.363-12.725c0.012-5.453-2.288-8.672-5.989-10.397
	c3.188-1.731,5.39-4.984,5.401-10.042c0.008-4.351-2.736-13.13-16.794-13.155L76.588,30.938z"/>
<path fill="#FFFFFF" d="M204.098,45.112c2.26-1.37,3.81-2.98,4.663-4.818c0.75-1.929,0.262-3.354-1.472-4.277
	c-1.74-0.925-4.063-0.88-6.978,0.126c-2.533,0.821-4.681,2.336-6.417,4.535c-1.741,2.207-2.896,4.228-3.463,6.062
	c0.657,0.283,1.686,0.516,3.091,0.701c1.417,0.19,2.729,0.19,3.951,0.009C199.635,47.269,201.841,46.494,204.098,45.112
	 M179.522,38.449c1.936-3.308,4.358-6.106,7.274-8.404c2.821-2.288,6.039-3.987,9.654-5.087c3.628-1.093,7.314-1.552,11.072-1.359
	c4.224,0.286,7.725,1.67,10.491,4.158c2.766,2.494,4.146,5.533,4.138,9.116c-0.004,2.855-0.574,5.429-1.705,7.724
	c-1.135,2.3-2.598,4.362-4.38,6.203c-1.789,1.734-3.838,3.209-6.135,4.403c-2.311,1.189-4.638,2.059-6.984,2.605
	c-2.258,0.549-4.632,0.775-7.119,0.68c-2.487-0.098-4.534-0.424-6.122-0.984c0.269,1.659,1.393,3.314,3.367,4.98
	c1.971,1.656,4.737,2.4,8.309,2.218c2.35-0.082,4.981-0.722,7.896-1.913c2.912-1.191,5.265-2.428,7.054-3.713
	c1.317-0.549,2.514-0.523,3.594,0.078c1.076,0.597,1.947,1.449,2.602,2.556c0.559,1.104,0.906,2.276,1.047,3.519
	c0.137,1.246-0.074,2.232-0.641,2.963c-2.254,1.931-5.449,3.738-9.591,5.436c-4.138,1.691-8.225,2.58-12.262,2.666
	c-5.167,0.176-9.421-0.5-12.75-2.027c-3.329-1.525-5.935-3.527-7.808-6.015c-1.967-2.58-3.258-5.476-3.861-8.696
	c-0.601-3.224-0.763-6.577-0.473-10.076C176.48,45.433,177.591,41.755,179.522,38.449"/>
<polygon stroke="#000000" stroke-miterlimit="10" points="-126,-116.333 -126,-116.333 -126,-116.333 -126,-116.333 -126,-116.333 
	-126,-116.333 -126,-116.333 "/>
</svg>
